<?xml version="1.0" encoding="UTF-8" standalone="no"?>
<!-- Generator: Adobe Illustrator 16.0.0, SVG Export Plug-In . SVG Version: 6.00 Build 0)  -->

<svg
   xmlns:dc="http://purl.org/dc/elements/1.1/"
   xmlns:cc="http://creativecommons.org/ns#"
   xmlns:rdf="http://www.w3.org/1999/02/22-rdf-syntax-ns#"
   xmlns:svg="http://www.w3.org/2000/svg"
   xmlns="http://www.w3.org/2000/svg"
   xmlns:sodipodi="http://sodipodi.sourceforge.net/DTD/sodipodi-0.dtd"
   xmlns:inkscape="http://www.inkscape.org/namespaces/inkscape"
   version="1.1"
   x="0px"
   y="0px"
   width="24px"
   height="24px"
   viewBox="0 0 24 24"
   enable-background="new 0 0 24 24"
   xml:space="preserve"
   id="svg16"
   sodipodi:docname="icon-contact-pencil.svg"
   inkscape:version="0.92.2 2405546, 2018-03-11"><metadata
   id="metadata22"><rdf:RDF><cc:Work
       rdf:about=""><dc:format>image/svg+xml</dc:format><dc:type
         rdf:resource="http://purl.org/dc/dcmitype/StillImage" /></cc:Work></rdf:RDF></metadata><defs
   id="defs20" /><sodipodi:namedview
   pagecolor="#ffffff"
   bordercolor="#666666"
   borderopacity="1"
   objecttolerance="10"
   gridtolerance="10"
   guidetolerance="10"
   inkscape:pageopacity="0"
   inkscape:pageshadow="2"
   inkscape:window-width="1920"
   inkscape:window-height="1040"
   id="namedview18"
   showgrid="false"
   inkscape:zoom="9.8333333"
   inkscape:cx="12"
   inkscape:cy="12"
   inkscape:window-x="0"
   inkscape:window-y="40"
   inkscape:window-maximized="1"
   inkscape:current-layer="svg16" />
<g
   id="Frames-24px">
	<rect
   fill="none"
   width="24"
   height="24"
   id="rect2" />
</g>
<g
   id="Solid"
   style="fill:#aea9ad;fill-opacity:1">
	<g
   id="g13"
   style="fill:#aea9ad;fill-opacity:1">
		<path
   fill="#757575"
   d="M20.103,9.589l0.719-0.719c1.57-1.568,1.57-4.124,0-5.692c-1.569-1.57-4.124-1.57-5.692,0l-0.719,0.719    L20.103,9.589z"
   id="path5"
   style="fill:#aea9ad;fill-opacity:1" />
		<polygon
   fill="#757575"
   points="12.997,5.311 4.092,14.215 7.664,14.923 15.136,7.449   "
   id="polygon7"
   style="fill:#aea9ad;fill-opacity:1" />
		<path
   fill="#757575"
   d="M2.295,21.706c0.247,0.248,0.608,0.347,0.949,0.263l4.678-1.17l-0.78-3.941l-3.941-0.781l-1.169,4.678    C1.947,21.097,2.046,21.457,2.295,21.706z"
   id="path9"
   style="fill:#aea9ad;fill-opacity:1" />
		<polygon
   fill="#757575"
   points="16.55,8.863 9.078,16.337 9.785,19.907 18.689,11.003   "
   id="polygon11"
   style="fill:#aea9ad;fill-opacity:1" />
	</g>
</g>
</svg>