<?xml version="1.0" encoding="UTF-8" standalone="no"?>
<svg
   xmlns:dc="http://purl.org/dc/elements/1.1/"
   xmlns:cc="http://creativecommons.org/ns#"
   xmlns:rdf="http://www.w3.org/1999/02/22-rdf-syntax-ns#"
   xmlns:svg="http://www.w3.org/2000/svg"
   xmlns="http://www.w3.org/2000/svg"
   xmlns:sodipodi="http://sodipodi.sourceforge.net/DTD/sodipodi-0.dtd"
   xmlns:inkscape="http://www.inkscape.org/namespaces/inkscape"
   width="24"
   height="24"
   viewBox="0 0 24 24"
   version="1.1"
   id="svg7"
   sodipodi:docname="icon-feed-subscribe-hover.svg"
   inkscape:version="0.92.2 2405546, 2018-03-11">
  <metadata
     id="metadata11">
    <rdf:RDF>
      <cc:Work
         rdf:about="">
        <dc:format>image/svg+xml</dc:format>
        <dc:type
           rdf:resource="http://purl.org/dc/dcmitype/StillImage" />
        <dc:title></dc:title>
      </cc:Work>
    </rdf:RDF>
  </metadata>
  <sodipodi:namedview
     pagecolor="#ffffff"
     bordercolor="#666666"
     borderopacity="1"
     objecttolerance="10"
     gridtolerance="10"
     guidetolerance="10"
     inkscape:pageopacity="0"
     inkscape:pageshadow="2"
     inkscape:window-width="1920"
     inkscape:window-height="1040"
     id="namedview9"
     showgrid="false"
     inkscape:zoom="13.906433"
     inkscape:cx="14.803368"
     inkscape:cy="5.8600963"
     inkscape:window-x="0"
     inkscape:window-y="40"
     inkscape:window-maximized="1"
     inkscape:current-layer="svg7" />
  <defs
     id="defs3">
    <style
       id="current-color-scheme"
       type="text/css">
   .ColorScheme-Text { color:#999999; } .ColorScheme-Highlight { color:#48b9c7; }
  </style>
  </defs>
  <path
     style="color:#999999;fill:#ffffff;fill-opacity:1;stroke-width:1.29999995"
     class="ColorScheme-Text"
     d="m 2.9002929,2.897168 v 2.8361328 c 8.4843201,0 15.3638671,6.8761672 15.3638671,15.3638672 h 2.833594 c 0,-10.052435 -8.147949,-18.1986144 -18.1974611,-18.2 z m 0,5.6697266 v 2.8386724 c 5.35262,0 9.6916011,4.338591 9.6916011,9.691601 h 2.836134 c 0,-6.91834 -5.6096551,-12.5302734 -12.5277351,-12.5302734 z m 2.716797,7.0992184 c -1.5009803,0 -2.716797,1.217537 -2.716797,2.719336 0,1.49877 1.2157649,2.719336 2.716797,2.719336 1.5010317,0 2.7193358,-1.220553 2.7193358,-2.719336 0,-1.50189 -1.2183041,-2.719335 -2.7193358,-2.719336 z"
     id="path5"
     inkscape:connector-curvature="0" />
</svg>
