<?xml version="1.0" encoding="UTF-8" standalone="no"?>
<!-- Generator: Adobe Illustrator 16.0.0, SVG Export Plug-In . SVG Version: 6.00 Build 0)  -->

<svg
   xmlns:dc="http://purl.org/dc/elements/1.1/"
   xmlns:cc="http://creativecommons.org/ns#"
   xmlns:rdf="http://www.w3.org/1999/02/22-rdf-syntax-ns#"
   xmlns:svg="http://www.w3.org/2000/svg"
   xmlns="http://www.w3.org/2000/svg"
   xmlns:sodipodi="http://sodipodi.sourceforge.net/DTD/sodipodi-0.dtd"
   xmlns:inkscape="http://www.inkscape.org/namespaces/inkscape"
   version="1.1"
   x="0px"
   y="0px"
   width="24px"
   height="24px"
   viewBox="0 0 24 24"
   enable-background="new 0 0 24 24"
   xml:space="preserve"
   id="svg16"
   sodipodi:docname="icon-contact-envelope.svg"
   inkscape:version="0.92.2 2405546, 2018-03-11"><metadata
   id="metadata22"><rdf:RDF><cc:Work
       rdf:about=""><dc:format>image/svg+xml</dc:format><dc:type
         rdf:resource="http://purl.org/dc/dcmitype/StillImage" /></cc:Work></rdf:RDF></metadata><defs
   id="defs20">
	

		
		
	</defs><sodipodi:namedview
   pagecolor="#ffffff"
   bordercolor="#666666"
   borderopacity="1"
   objecttolerance="10"
   gridtolerance="10"
   guidetolerance="10"
   inkscape:pageopacity="0"
   inkscape:pageshadow="2"
   inkscape:window-width="1920"
   inkscape:window-height="1040"
   id="namedview18"
   showgrid="false"
   inkscape:zoom="13.906433"
   inkscape:cx="11.159799"
   inkscape:cy="3.9648617"
   inkscape:window-x="0"
   inkscape:window-y="40"
   inkscape:window-maximized="1"
   inkscape:current-layer="svg16" />
<g
   id="Frames-24px">
	<rect
   fill="none"
   width="24"
   height="24"
   id="rect2" />
</g>
<g
   id="g11"
   transform="translate(0,-5.5)"
   style="fill:#aea9ad;fill-opacity:1">
			<path
   d="m 12,16.823 8.965,-5.564 C 20.678,11.1 20.352,11 20,11 H 4 c -0.352,0 -0.678,0.1 -0.965,0.259 z"
   id="path7"
   inkscape:connector-curvature="0"
   style="fill:#aea9ad;fill-opacity:1" />
			<path
   d="M 12.527,18.85 C 12.366,18.95 12.183,19 12,19 11.817,19 11.634,18.95 11.473,18.85 L 2.003,12.974 C 2.003,12.982 2,12.991 2,13 v 9 c 0,1.103 0.897,2 2,2 h 16 c 1.103,0 2,-0.897 2,-2 v -9 c 0,-0.009 -0.003,-0.018 -0.003,-0.027 z"
   id="path9"
   inkscape:connector-curvature="0"
   style="fill:#aea9ad;fill-opacity:1" />
		</g>
</svg>