<?xml version="1.0" encoding="UTF-8" standalone="no"?>
<!-- Generator: Adobe Illustrator 16.0.0, SVG Export Plug-In . SVG Version: 6.00 Build 0)  -->

<svg
   xmlns:dc="http://purl.org/dc/elements/1.1/"
   xmlns:cc="http://creativecommons.org/ns#"
   xmlns:rdf="http://www.w3.org/1999/02/22-rdf-syntax-ns#"
   xmlns:svg="http://www.w3.org/2000/svg"
   xmlns="http://www.w3.org/2000/svg"
   xmlns:sodipodi="http://sodipodi.sourceforge.net/DTD/sodipodi-0.dtd"
   xmlns:inkscape="http://www.inkscape.org/namespaces/inkscape"
   version="1.1"
   x="0px"
   y="0px"
   width="24px"
   height="24px"
   viewBox="0 0 24 24"
   enable-background="new 0 0 24 24"
   xml:space="preserve"
   id="svg12"
   sodipodi:docname="icon-contact-phone.svg"
   inkscape:version="0.92.2 2405546, 2018-03-11"><metadata
   id="metadata18"><rdf:RDF><cc:Work
       rdf:about=""><dc:format>image/svg+xml</dc:format><dc:type
         rdf:resource="http://purl.org/dc/dcmitype/StillImage" /></cc:Work></rdf:RDF></metadata><defs
   id="defs16">
	

		
		
	</defs><sodipodi:namedview
   pagecolor="#ffffff"
   bordercolor="#666666"
   borderopacity="1"
   objecttolerance="10"
   gridtolerance="10"
   guidetolerance="10"
   inkscape:pageopacity="0"
   inkscape:pageshadow="2"
   inkscape:window-width="1920"
   inkscape:window-height="1040"
   id="namedview14"
   showgrid="false"
   inkscape:zoom="13.906433"
   inkscape:cx="11.404285"
   inkscape:cy="11.702142"
   inkscape:window-x="0"
   inkscape:window-y="40"
   inkscape:window-maximized="1"
   inkscape:current-layer="svg12" />
<g
   id="Frames-24px">
	<rect
   fill="none"
   width="24"
   height="24"
   id="rect2" />
</g>
<path
   d="m 19.5,14.5 h -4 c -0.553,0 -1,0.447 -1,1 v 1 c -4,0 -6.938,-3.063 -7,-7 h 1 c 0.553,0 1,-0.447 1,-1 v -4 c 0,-0.553 -0.447,-1 -1,-1 h -4 c -0.553,0 -1,0.447 -1,1 v 5 c 0,6.075 4.925,11 11,11 h 5 c 0.553,0 1,-0.447 1,-1 v -4 c 0,-0.553 -0.447,-1 -1,-1 z"
   id="path7"
   inkscape:connector-curvature="0"
   style="fill:#aea9ad;fill-opacity:1" />
</svg>